<svg xmlns="http://www.w3.org/2000/svg" xmlns:xlink="http://www.w3.org/1999/xlink" width="1040" height="711.3"><rect width="1040" height="711.3" rx="5" ry="5" class="a"/><svg y="0%" x="0%"><circle cx="20" cy="20" r="6" fill="#ff5f58"/><circle cx="40" cy="20" r="6" fill="#ffbd2e"/><circle cx="60" cy="20" r="6" fill="#18c132"/></svg><svg height="651.3" viewBox="0 0 100 65.13" width="1000" x="15" xmlns="http://www.w3.org/2000/svg" xmlns:xlink="http://www.w3.org/1999/xlink" y="50"><style>@keyframes i{0%{transform:translateX(0)}.1%{transform:translateX(-200px)}4.9%{transform:translateX(-300px)}7.9%{transform:translateX(-400px)}9.3%{transform:translateX(-800px)}22.4%{transform:translateX(-900px)}25.5%{transform:translateX(-1000px)}28.2%{transform:translateX(-1100px)}29.8%{transform:translateX(-1200px)}32.1%{transform:translateX(-1300px)}32.8%{transform:translateX(-1400px)}33.7%{transform:translateX(-1500px)}34.9%{transform:translateX(-1600px)}35.6%{transform:translateX(-1700px)}36.5%{transform:translateX(-1800px)}37.7%{transform:translateX(-1900px)}38.5%{transform:translateX(-2000px)}41.5%{transform:translateX(-2100px)}43.3%{transform:translateX(-2200px)}44.6%{transform:translateX(-2300px)}45.5%{transform:translateX(-2400px)}46.2%{transform:translateX(-2500px)}47.4%{transform:translateX(-2600px)}48.5%{transform:translateX(-2700px)}49.4%{transform:translateX(-2800px)}50.1%{transform:translateX(-2900px)}50.8%{transform:translateX(-3000px)}52%{transform:translateX(-3100px)}52.9%{transform:translateX(-3200px)}53.9%{transform:translateX(-3300px)}54.6%{transform:translateX(-3400px)}55.5%{transform:translateX(-3500px)}56.4%{transform:translateX(-3600px)}57.2%{transform:translateX(-3700px)}58%{transform:translateX(-3800px)}65.6%{transform:translateX(-3900px)}66.3%{transform:translateX(-4000px)}67.5%{transform:translateX(-4100px)}67.6%{transform:translateX(-4300px)}to{transform:translateX(-4400px)}}.a{fill:#282d35}.f,.g{fill:#b9c0cb;white-space:pre}.g{fill:#a8cc8c;font-weight:700}</style><g font-family="Monaco,Consolas,Menlo,'Bitstream Vera Sans Mono','Powerline Symbols',monospace" font-size="1.67"><defs><symbol id="1"><text y="1.67" class="f">[evan@beaver</text><text x="13.026" y="1.67" class="f">download-np]$</text></symbol><symbol id="2"><text y="1.67" class="f">[evan@beaver</text><text x="13.026" y="1.67" class="f">download-np]$</text><text x="27.054" y="1.67" class="f">cargo</text><text x="33.066" y="1.67" class="f">r</text><text x="35.07" y="1.67" class="f">--release</text><text x="45.09" y="1.67" class="f">--</text><text x="48.096" y="1.67" class="f">-d</text><text x="51.102" y="1.67" class="f">mnet</text><text x="56.112" y="1.67" class="f">-m</text><text x="59.118" y="1.67" class="f">24876555</text><text x="68.136" y="1.67" class="f">-l</text><text x="71.142" y="1.67" class="f">50</text><text x="74.148" y="1.67" class="f">-f</text><text x="77.154" y="1.67" class="f">&apos;드림캐쳐|dreamcatcher&apos;</text></symbol><symbol id="3"><text x="4.008" y="1.67" class="g">Finished</text><text x="13.026" y="1.67" class="f">release</text><text x="21.042" y="1.67" class="f">[optimized]</text><text x="33.066" y="1.67" class="f">target(s)</text><text x="43.086" y="1.67" class="f">in</text><text x="46.092" y="1.67" class="f">0.05s</text></symbol><symbol id="4"><text x="5.01" y="1.67" class="g">Running</text><text x="13.026" y="1.67" class="f">`target/release/download-np</text><text x="41.082" y="1.67" class="f">-d</text><text x="44.088" y="1.67" class="f">mnet</text><text x="49.098" y="1.67" class="f">-m</text><text x="52.104" y="1.67" class="f">24876555</text><text x="61.122" y="1.67" class="f">-l</text><text x="64.128" y="1.67" class="f">50</text><text x="67.134" y="1.67" class="f">-f</text><text x="70.14" y="1.67" class="f">&apos;드림캐쳐|dreamcatcher&apos;`</text></symbol><symbol id="5"><text y="1.67" class="f">Retrieving</text><text x="11.022" y="1.67" class="f">IDs...</text></symbol><symbol id="6"><text y="1.67" class="f">Downloading</text><text x="12.024" y="1.67" class="f">posts...</text></symbol><symbol id="7"><text y="1.67" class="f">Downloading</text><text x="12.024" y="1.67" class="f">210204</text><text x="19.038" y="1.67" class="f">엠카운트다운</text><text x="26.052" y="1.67" class="f">드림캐쳐(Dreamcatcher)</text><text x="45.09" y="1.67" class="f">-</text><text x="47.094" y="1.67" class="f">Odd</text><text x="51.102" y="1.67" class="f">Eye</text><text x="55.11" y="1.67" class="f">현장포토...</text></symbol><symbol id="8"><text y="1.67" class="f">Downloading</text><text x="12.024" y="1.67" class="f">210128</text><text x="19.038" y="1.67" class="f">엠카운트다운</text><text x="26.052" y="1.67" class="f">드림캐쳐(Dreamcatcher)</text><text x="45.09" y="1.67" class="f">-</text><text x="47.094" y="1.67" class="f">Odd</text><text x="51.102" y="1.67" class="f">Eye</text><text x="55.11" y="1.67" class="f">현장포토...</text></symbol><symbol id="a"><path fill="transparent" d="M0 0h100v30H0z"/></symbol></defs><path class="a" d="M0 0h100v65.13H0z"/><g style="animation-duration:9.60517s;animation-iteration-count:infinite;animation-name:i;animation-timing-function:steps(1,end)"><svg width="4500"><svg><use xlink:href="#a"/></svg><svg x="100"><use xlink:href="#a"/></svg><svg x="200"><use xlink:href="#a"/><use xlink:href="#1"/></svg><svg x="300"><use xlink:href="#a"/><use xlink:href="#2"/></svg><svg x="400"><use xlink:href="#a"/><use xlink:href="#2"/></svg><svg x="500"><use xlink:href="#a"/><use xlink:href="#2"/><use xlink:href="#3" y="2.171"/></svg><svg x="600"><use xlink:href="#a"/><use xlink:href="#2"/><use xlink:href="#3" y="2.171"/><use xlink:href="#4" y="4.342"/></svg><svg x="700"><use xlink:href="#a"/><use xlink:href="#2"/><use xlink:href="#3" y="2.171"/><use xlink:href="#4" y="4.342"/><use xlink:href="#5" y="6.513"/></svg><svg x="800"><use xlink:href="#a"/><use xlink:href="#2"/><use xlink:href="#3" y="2.171"/><use xlink:href="#4" y="4.342"/><use xlink:href="#5" y="6.513"/><text y="10.354" class="f">Downloading</text><text x="12.024" y="10.354" class="f">page</text><text x="17.034" y="10.354" class="f">1</text><text x="19.038" y="10.354" class="f">⠁</text></svg><svg x="900"><use xlink:href="#a"/><use xlink:href="#2"/><use xlink:href="#3" y="2.171"/><use xlink:href="#4" y="4.342"/><use xlink:href="#5" y="6.513"/><text y="10.354" class="f">Downloading</text><text x="12.024" y="10.354" class="f">page</text><text x="17.034" y="10.354" class="f">2</text><text x="19.038" y="10.354" class="f">⠉</text></svg><svg x="1000"><use xlink:href="#a"/><use xlink:href="#2"/><use xlink:href="#3" y="2.171"/><use xlink:href="#4" y="4.342"/><use xlink:href="#5" y="6.513"/><use xlink:href="#6" y="8.684"/></svg><svg x="1100"><use xlink:href="#a"/><use xlink:href="#2"/><use xlink:href="#3" y="2.171"/><use xlink:href="#4" y="4.342"/><use xlink:href="#5" y="6.513"/><use xlink:href="#6" y="8.684"/><use xlink:href="#7" y="10.855"/></svg><svg x="1200"><use xlink:href="#a"/><use xlink:href="#2"/><use xlink:href="#3" y="2.171"/><use xlink:href="#4" y="4.342"/><use xlink:href="#5" y="6.513"/><use xlink:href="#6" y="8.684"/><use xlink:href="#7" y="10.855"/><text y="14.696" class="f">[==&gt;</text><text x="91.182" y="14.696" class="f">]</text><text x="95.19" y="14.696" class="f">1/41</text></svg><svg x="1300"><use xlink:href="#a"/><use xlink:href="#2"/><use xlink:href="#3" y="2.171"/><use xlink:href="#4" y="4.342"/><use xlink:href="#5" y="6.513"/><use xlink:href="#6" y="8.684"/><use xlink:href="#7" y="10.855"/><text y="14.696" class="f">[========&gt;</text><text x="91.182" y="14.696" class="f">]</text><text x="95.19" y="14.696" class="f">4/41</text></svg><svg x="1400"><use xlink:href="#a"/><use xlink:href="#2"/><use xlink:href="#3" y="2.171"/><use xlink:href="#4" y="4.342"/><use xlink:href="#5" y="6.513"/><use xlink:href="#6" y="8.684"/><use xlink:href="#7" y="10.855"/><text y="14.696" class="f">[=====================&gt;</text><text x="91.182" y="14.696" class="f">]</text><text x="94.188" y="14.696" class="f">10/41</text></svg><svg x="1500"><use xlink:href="#a"/><use xlink:href="#2"/><use xlink:href="#3" y="2.171"/><use xlink:href="#4" y="4.342"/><use xlink:href="#5" y="6.513"/><use xlink:href="#6" y="8.684"/><use xlink:href="#7" y="10.855"/><text y="14.696" class="f">[================================&gt;</text><text x="91.182" y="14.696" class="f">]</text><text x="94.188" y="14.696" class="f">15/41</text></svg><svg x="1600"><use xlink:href="#a"/><use xlink:href="#2"/><use xlink:href="#3" y="2.171"/><use xlink:href="#4" y="4.342"/><use xlink:href="#5" y="6.513"/><use xlink:href="#6" y="8.684"/><use xlink:href="#7" y="10.855"/><text y="14.696" class="f">[=====================================&gt;</text><text x="91.182" y="14.696" class="f">]</text><text x="94.188" y="14.696" class="f">17/41</text></svg><svg x="1700"><use xlink:href="#a"/><use xlink:href="#2"/><use xlink:href="#3" y="2.171"/><use xlink:href="#4" y="4.342"/><use xlink:href="#5" y="6.513"/><use xlink:href="#6" y="8.684"/><use xlink:href="#7" y="10.855"/><text y="14.696" class="f">[===========================================================&gt;</text><text x="91.182" y="14.696" class="f">]</text><text x="94.188" y="14.696" class="f">27/41</text></svg><svg x="1800"><use xlink:href="#a"/><use xlink:href="#2"/><use xlink:href="#3" y="2.171"/><use xlink:href="#4" y="4.342"/><use xlink:href="#5" y="6.513"/><use xlink:href="#6" y="8.684"/><use xlink:href="#7" y="10.855"/><text y="14.696" class="f">[====================================================================&gt;</text><text x="91.182" y="14.696" class="f">]</text><text x="94.188" y="14.696" class="f">31/41</text></svg><svg x="1900"><use xlink:href="#a"/><use xlink:href="#2"/><use xlink:href="#3" y="2.171"/><use xlink:href="#4" y="4.342"/><use xlink:href="#5" y="6.513"/><use xlink:href="#6" y="8.684"/><use xlink:href="#7" y="10.855"/><text y="14.696" class="f">[=======================================================================================&gt;</text><text x="91.182" y="14.696" class="f">]</text><text x="94.188" y="14.696" class="f">40/41</text></svg><svg x="2000"><use xlink:href="#a"/><use xlink:href="#2"/><use xlink:href="#3" y="2.171"/><use xlink:href="#4" y="4.342"/><use xlink:href="#5" y="6.513"/><use xlink:href="#6" y="8.684"/><use xlink:href="#7" y="10.855"/></svg><svg x="2100"><use xlink:href="#a"/><use xlink:href="#2"/><use xlink:href="#3" y="2.171"/><use xlink:href="#4" y="4.342"/><use xlink:href="#5" y="6.513"/><use xlink:href="#6" y="8.684"/><use xlink:href="#7" y="10.855"/><use xlink:href="#8" y="13.026"/></svg><svg x="2200"><use xlink:href="#a"/><use xlink:href="#2"/><use xlink:href="#3" y="2.171"/><use xlink:href="#4" y="4.342"/><use xlink:href="#5" y="6.513"/><use xlink:href="#6" y="8.684"/><use xlink:href="#7" y="10.855"/><use xlink:href="#8" y="13.026"/><text y="16.867" class="f">[=&gt;</text><text x="91.182" y="16.867" class="f">]</text><text x="95.19" y="16.867" class="f">1/60</text></svg><svg x="2300"><use xlink:href="#a"/><use xlink:href="#2"/><use xlink:href="#3" y="2.171"/><use xlink:href="#4" y="4.342"/><use xlink:href="#5" y="6.513"/><use xlink:href="#6" y="8.684"/><use xlink:href="#7" y="10.855"/><use xlink:href="#8" y="13.026"/><text y="16.867" class="f">[===&gt;</text><text x="91.182" y="16.867" class="f">]</text><text x="95.19" y="16.867" class="f">2/60</text></svg><svg x="2400"><use xlink:href="#a"/><use xlink:href="#2"/><use xlink:href="#3" y="2.171"/><use xlink:href="#4" y="4.342"/><use xlink:href="#5" y="6.513"/><use xlink:href="#6" y="8.684"/><use xlink:href="#7" y="10.855"/><use xlink:href="#8" y="13.026"/><text y="16.867" class="f">[====&gt;</text><text x="91.182" y="16.867" class="f">]</text><text x="95.19" y="16.867" class="f">3/60</text></svg><svg x="2500"><use xlink:href="#a"/><use xlink:href="#2"/><use xlink:href="#3" y="2.171"/><use xlink:href="#4" y="4.342"/><use xlink:href="#5" y="6.513"/><use xlink:href="#6" y="8.684"/><use xlink:href="#7" y="10.855"/><use xlink:href="#8" y="13.026"/><text y="16.867" class="f">[=======&gt;</text><text x="91.182" y="16.867" class="f">]</text><text x="95.19" y="16.867" class="f">5/60</text></svg><svg x="2600"><use xlink:href="#a"/><use xlink:href="#2"/><use xlink:href="#3" y="2.171"/><use xlink:href="#4" y="4.342"/><use xlink:href="#5" y="6.513"/><use xlink:href="#6" y="8.684"/><use xlink:href="#7" y="10.855"/><use xlink:href="#8" y="13.026"/><text y="16.867" class="f">[==================&gt;</text><text x="91.182" y="16.867" class="f">]</text><text x="94.188" y="16.867" class="f">12/60</text></svg><svg x="2700"><use xlink:href="#a"/><use xlink:href="#2"/><use xlink:href="#3" y="2.171"/><use xlink:href="#4" y="4.342"/><use xlink:href="#5" y="6.513"/><use xlink:href="#6" y="8.684"/><use xlink:href="#7" y="10.855"/><use xlink:href="#8" y="13.026"/><text y="16.867" class="f">[===========================&gt;</text><text x="91.182" y="16.867" class="f">]</text><text x="94.188" y="16.867" class="f">18/60</text></svg><svg x="2800"><use xlink:href="#a"/><use xlink:href="#2"/><use xlink:href="#3" y="2.171"/><use xlink:href="#4" y="4.342"/><use xlink:href="#5" y="6.513"/><use xlink:href="#6" y="8.684"/><use xlink:href="#7" y="10.855"/><use xlink:href="#8" y="13.026"/><text y="16.867" class="f">[==============================&gt;</text><text x="91.182" y="16.867" class="f">]</text><text x="94.188" y="16.867" class="f">20/60</text></svg><svg x="2900"><use xlink:href="#a"/><use xlink:href="#2"/><use xlink:href="#3" y="2.171"/><use xlink:href="#4" y="4.342"/><use xlink:href="#5" y="6.513"/><use xlink:href="#6" y="8.684"/><use xlink:href="#7" y="10.855"/><use xlink:href="#8" y="13.026"/><text y="16.867" class="f">[=======================================&gt;</text><text x="91.182" y="16.867" class="f">]</text><text x="94.188" y="16.867" class="f">26/60</text></svg><svg x="3000"><use xlink:href="#a"/><use xlink:href="#2"/><use xlink:href="#3" y="2.171"/><use xlink:href="#4" y="4.342"/><use xlink:href="#5" y="6.513"/><use xlink:href="#6" y="8.684"/><use xlink:href="#7" y="10.855"/><use xlink:href="#8" y="13.026"/><text y="16.867" class="f">[=============================================&gt;</text><text x="91.182" y="16.867" class="f">]</text><text x="94.188" y="16.867" class="f">30/60</text></svg><svg x="3100"><use xlink:href="#a"/><use xlink:href="#2"/><use xlink:href="#3" y="2.171"/><use xlink:href="#4" y="4.342"/><use xlink:href="#5" y="6.513"/><use xlink:href="#6" y="8.684"/><use xlink:href="#7" y="10.855"/><use xlink:href="#8" y="13.026"/><text y="16.867" class="f">[================================================&gt;</text><text x="91.182" y="16.867" class="f">]</text><text x="94.188" y="16.867" class="f">32/60</text></svg><svg x="3200"><use xlink:href="#a"/><use xlink:href="#2"/><use xlink:href="#3" y="2.171"/><use xlink:href="#4" y="4.342"/><use xlink:href="#5" y="6.513"/><use xlink:href="#6" y="8.684"/><use xlink:href="#7" y="10.855"/><use xlink:href="#8" y="13.026"/><text y="16.867" class="f">[====================================================&gt;</text><text x="91.182" y="16.867" class="f">]</text><text x="94.188" y="16.867" class="f">35/60</text></svg><svg x="3300"><use xlink:href="#a"/><use xlink:href="#2"/><use xlink:href="#3" y="2.171"/><use xlink:href="#4" y="4.342"/><use xlink:href="#5" y="6.513"/><use xlink:href="#6" y="8.684"/><use xlink:href="#7" y="10.855"/><use xlink:href="#8" y="13.026"/><text y="16.867" class="f">[=========================================================&gt;</text><text x="91.182" y="16.867" class="f">]</text><text x="94.188" y="16.867" class="f">38/60</text></svg><svg x="3400"><use xlink:href="#a"/><use xlink:href="#2"/><use xlink:href="#3" y="2.171"/><use xlink:href="#4" y="4.342"/><use xlink:href="#5" y="6.513"/><use xlink:href="#6" y="8.684"/><use xlink:href="#7" y="10.855"/><use xlink:href="#8" y="13.026"/><text y="16.867" class="f">[============================================================&gt;</text><text x="91.182" y="16.867" class="f">]</text><text x="94.188" y="16.867" class="f">40/60</text></svg><svg x="3500"><use xlink:href="#a"/><use xlink:href="#2"/><use xlink:href="#3" y="2.171"/><use xlink:href="#4" y="4.342"/><use xlink:href="#5" y="6.513"/><use xlink:href="#6" y="8.684"/><use xlink:href="#7" y="10.855"/><use xlink:href="#8" y="13.026"/><text y="16.867" class="f">[==================================================================&gt;</text><text x="91.182" y="16.867" class="f">]</text><text x="94.188" y="16.867" class="f">44/60</text></svg><svg x="3600"><use xlink:href="#a"/><use xlink:href="#2"/><use xlink:href="#3" y="2.171"/><use xlink:href="#4" y="4.342"/><use xlink:href="#5" y="6.513"/><use xlink:href="#6" y="8.684"/><use xlink:href="#7" y="10.855"/><use xlink:href="#8" y="13.026"/><text y="16.867" class="f">[===========================================================================&gt;</text><text x="91.182" y="16.867" class="f">]</text><text x="94.188" y="16.867" class="f">50/60</text></svg><svg x="3700"><use xlink:href="#a"/><use xlink:href="#2"/><use xlink:href="#3" y="2.171"/><use xlink:href="#4" y="4.342"/><use xlink:href="#5" y="6.513"/><use xlink:href="#6" y="8.684"/><use xlink:href="#7" y="10.855"/><use xlink:href="#8" y="13.026"/><text y="16.867" class="f">[==================================================================================&gt;</text><text x="91.182" y="16.867" class="f">]</text><text x="94.188" y="16.867" class="f">55/60</text></svg><svg x="3800"><use xlink:href="#a"/><use xlink:href="#2"/><use xlink:href="#3" y="2.171"/><use xlink:href="#4" y="4.342"/><use xlink:href="#5" y="6.513"/><use xlink:href="#6" y="8.684"/><use xlink:href="#7" y="10.855"/><use xlink:href="#8" y="13.026"/><text y="16.867" class="f">[=====================================================================================&gt;</text><text x="91.182" y="16.867" class="f">]</text><text x="94.188" y="16.867" class="f">57/60</text></svg><svg x="3900"><use xlink:href="#a"/><use xlink:href="#2"/><use xlink:href="#3" y="2.171"/><use xlink:href="#4" y="4.342"/><use xlink:href="#5" y="6.513"/><use xlink:href="#6" y="8.684"/><use xlink:href="#7" y="10.855"/><use xlink:href="#8" y="13.026"/><text y="16.867" class="f">[========================================================================================&gt;</text><text x="91.182" y="16.867" class="f">]</text><text x="94.188" y="16.867" class="f">59/60</text></svg><svg x="4000"><use xlink:href="#a"/><use xlink:href="#2"/><use xlink:href="#3" y="2.171"/><use xlink:href="#4" y="4.342"/><use xlink:href="#5" y="6.513"/><use xlink:href="#6" y="8.684"/><use xlink:href="#7" y="10.855"/><use xlink:href="#8" y="13.026"/><text y="16.867" class="f">[==========================================================================================]</text><text x="94.188" y="16.867" class="f">60/60</text></svg><svg x="4100"><use xlink:href="#a"/><use xlink:href="#2"/><use xlink:href="#3" y="2.171"/><use xlink:href="#4" y="4.342"/><use xlink:href="#5" y="6.513"/><use xlink:href="#6" y="8.684"/><use xlink:href="#7" y="10.855"/><use xlink:href="#8" y="13.026"/></svg><svg x="4200"><use xlink:href="#a"/><use xlink:href="#2"/><use xlink:href="#3" y="2.171"/><use xlink:href="#4" y="4.342"/><use xlink:href="#5" y="6.513"/><use xlink:href="#6" y="8.684"/><use xlink:href="#7" y="10.855"/><use xlink:href="#8" y="13.026"/></svg><svg x="4300"><use xlink:href="#a"/><use xlink:href="#2"/><use xlink:href="#3" y="2.171"/><use xlink:href="#4" y="4.342"/><use xlink:href="#5" y="6.513"/><use xlink:href="#6" y="8.684"/><use xlink:href="#7" y="10.855"/><use xlink:href="#8" y="13.026"/><use xlink:href="#1" y="15.197"/></svg><svg x="4400"><use xlink:href="#a"/><use xlink:href="#2"/><use xlink:href="#3" y="2.171"/><use xlink:href="#4" y="4.342"/><use xlink:href="#5" y="6.513"/><use xlink:href="#6" y="8.684"/><use xlink:href="#7" y="10.855"/><use xlink:href="#8" y="13.026"/><use xlink:href="#1" y="15.197"/><text y="19.038" class="f">exit</text></svg></svg></g></g></svg></svg>